<svg width="115" height="115" viewBox="0 0 115 115" fill="none" xmlns="http://www.w3.org/2000/svg">
<path d="M0 0H115V115H0V0Z" fill="white"/>
<path d="M8.85701 47.6476C8.89204 47.5775 8.96212 47.5074 9.03219 47.5074H9.17234C9.24242 47.5074 9.31249 47.5425 9.34753 47.6125L11.4147 52.6229H11.4498L13.482 47.6125C13.517 47.5425 13.5871 47.5074 13.6571 47.5074H13.7973C13.8674 47.5074 13.9374 47.5775 13.9725 47.6476L15.1638 54.2346C15.1988 54.3748 15.1287 54.4448 14.9886 54.4448H14.3579C14.2528 54.4448 14.1827 54.3748 14.1827 54.3047L13.4469 49.925H13.4119L11.66 54.4448C11.625 54.5149 11.5899 54.55 11.4848 54.55H11.3096C11.2396 54.55 11.1695 54.5149 11.1344 54.4448L9.34753 49.925H9.3125L8.61175 54.3047C8.61175 54.3748 8.50663 54.4448 8.43656 54.4448H7.80588C7.66573 54.4448 7.59566 54.3397 7.63069 54.2346L8.85701 47.6476Z" fill="black"/>
<path d="M24.1684 47.5074C26.1305 47.5074 27.7072 49.0841 27.7072 51.0462C27.7072 53.0083 26.1305 54.585 24.1684 54.585C22.2063 54.585 20.6296 53.0083 20.6296 51.0462C20.6296 49.0841 22.2063 47.5074 24.1684 47.5074ZM24.1684 53.5689C25.5699 53.5689 26.7262 52.4477 26.7262 51.0112C26.7262 49.6097 25.5699 48.4534 24.1684 48.4534C22.7669 48.4534 21.6107 49.6097 21.6107 51.0112C21.6107 52.4477 22.7669 53.5689 24.1684 53.5689Z" fill="black"/>
<path d="M33.7687 47.7877C33.7687 47.6826 33.8388 47.6125 33.9439 47.6125H36.6067C37.798 47.6125 38.744 48.5585 38.744 49.7148C38.744 50.6258 38.1484 51.3615 37.3075 51.7119L38.6389 54.1996C38.709 54.3397 38.6389 54.4799 38.4637 54.4799H37.6929C37.6228 54.4799 37.5527 54.4448 37.5527 54.3748L36.2563 51.782H34.7848V54.2697C34.7848 54.3748 34.6797 54.4448 34.6096 54.4448H33.9789C33.8738 54.4448 33.8037 54.3397 33.8037 54.2697V47.7877H33.7687ZM36.5717 50.9061C37.2024 50.9061 37.763 50.3805 37.763 49.6797C37.763 49.0491 37.2024 48.5235 36.5717 48.5235H34.8198V50.9061H36.5717Z" fill="black"/>
<path d="M44.8405 47.7877C44.8405 47.6826 44.9106 47.6125 45.0157 47.6125H48.9399C49.045 47.6125 49.1151 47.7176 49.1151 47.7877V48.3483C49.1151 48.4534 49.045 48.5235 48.9399 48.5235H45.8566V50.5206H48.4844C48.5895 50.5206 48.6596 50.6258 48.6596 50.6958V51.2564C48.6596 51.3615 48.5545 51.4316 48.4844 51.4316H45.8566V53.5339H48.9399C49.045 53.5339 49.1151 53.639 49.1151 53.7091V54.2346C49.1151 54.3397 49.045 54.4098 48.9399 54.4098H45.0157C44.9106 54.4098 44.8405 54.3047 44.8405 54.2346V47.7877Z" fill="black"/>
<path d="M67.72 48.5235H66.1083C66.0032 48.5235 65.9331 48.4184 65.9331 48.3483V47.7877C65.9331 47.6826 66.0032 47.6125 66.1083 47.6125H70.3128C70.4179 47.6125 70.488 47.7176 70.488 47.7877V48.3483C70.488 48.4534 70.4179 48.5235 70.3128 48.5235H68.7011V54.2697C68.7011 54.3748 68.596 54.4448 68.5259 54.4448H67.8952C67.7901 54.4448 67.72 54.3397 67.72 54.2697V48.5235Z" fill="black"/>
<path d="M76.0239 47.7877C76.0239 47.6826 76.129 47.6125 76.1991 47.6125H76.8297C76.9348 47.6125 77.0049 47.7176 77.0049 47.7877V50.5206H80.5787V47.7877C80.5787 47.6826 80.6488 47.6125 80.7539 47.6125H81.3846C81.4897 47.6125 81.5598 47.7176 81.5598 47.7877V54.2697C81.5598 54.3748 81.4547 54.4448 81.3846 54.4448H80.7539C80.6488 54.4448 80.5787 54.3397 80.5787 54.2697V51.4316H77.075V54.2697C77.075 54.3748 77.0049 54.4448 76.8998 54.4448H76.2691C76.164 54.4448 76.0939 54.3397 76.0939 54.2697V47.7877H76.0239Z" fill="black"/>
<path d="M87.2009 54.1996L90.2141 47.6125C90.2491 47.5425 90.3192 47.5074 90.3893 47.5074H90.4944C90.5294 47.5074 90.6345 47.5425 90.6696 47.6125L93.6478 54.1996C93.7178 54.3397 93.6127 54.4448 93.4726 54.4448H92.8419C92.7368 54.4448 92.6667 54.3748 92.6317 54.3047L92.036 52.9733H88.8126C88.6024 53.4288 88.4272 53.8492 88.2169 54.3047C88.1819 54.3748 88.1118 54.4448 88.0067 54.4448H87.3761C87.2009 54.4448 87.1308 54.3397 87.2009 54.1996ZM91.6506 52.1324L90.4594 49.4345H90.3893L89.198 52.1324H91.6506Z" fill="black"/>
<path d="M99.2187 47.6826C99.2187 47.5775 99.3238 47.5074 99.3939 47.5074H99.6391L103.914 52.4477V47.8228C103.914 47.7176 103.984 47.6476 104.089 47.6476H104.72C104.825 47.6476 104.895 47.7527 104.895 47.8228V54.4098C104.895 54.5149 104.79 54.585 104.72 54.585H104.474L100.2 49.5046V54.2697C100.2 54.3748 100.13 54.4448 100.025 54.4448H99.3939C99.2888 54.4448 99.2187 54.3397 99.2187 54.2697V47.6826Z" fill="black"/>
<path d="M8.22632 87.0648C8.22632 86.9596 8.33143 86.8545 8.43655 86.8545H12.9213C13.0615 86.8545 13.1316 86.9596 13.1316 87.0648V87.6954C13.1316 87.8006 13.0265 87.9057 12.9213 87.9057H9.38256V90.4984H12.3607C12.4659 90.4984 12.571 90.6036 12.571 90.7087V91.3393C12.571 91.4445 12.4659 91.5496 12.3607 91.5496H9.38256V94.4927C9.38256 94.5978 9.27744 94.7029 9.17233 94.7029H8.43655C8.2964 94.7029 8.22632 94.5978 8.22632 94.4927V87.0648Z" fill="black"/>
<path d="M23.783 86.7494C26.0254 86.7494 27.8123 88.5363 27.8123 90.7787C27.8123 93.0211 26.0254 94.8081 23.783 94.8081C21.5406 94.8081 19.7537 93.0211 19.7537 90.7787C19.7537 88.5363 21.5406 86.7494 23.783 86.7494ZM23.783 93.6869C25.3947 93.6869 26.6911 92.3905 26.6911 90.7787C26.6911 89.2021 25.3947 87.8706 23.783 87.8706C22.2063 87.8706 20.8749 89.2021 20.8749 90.7787C20.8749 92.3905 22.1713 93.6869 23.783 93.6869Z" fill="black"/>
<path d="M35.0651 87.0648C35.0651 86.9596 35.1702 86.8545 35.2753 86.8545H38.3235C39.655 86.8545 40.7762 87.9057 40.7762 89.2371C40.7762 90.2532 40.0754 91.1291 39.1294 91.5145L40.6711 94.3526C40.7411 94.4927 40.6711 94.6679 40.4959 94.6679H39.6199C39.5148 94.6679 39.4798 94.5978 39.4448 94.5628L37.9381 91.5846H36.2563V94.4577C36.2563 94.5628 36.1512 94.6679 36.0461 94.6679H35.3103C35.1702 94.6679 35.1001 94.5628 35.1001 94.4577V87.0648H35.0651ZM38.2184 90.6736C38.9542 90.6736 39.5849 90.043 39.5849 89.2721C39.5849 88.5363 38.9542 87.9407 38.2184 87.9407H36.2213V90.6736H38.2184Z" fill="black"/>
<path d="M61.5885 86.7494C62.7097 86.7494 63.5506 87.1348 64.2863 87.8006C64.3915 87.9057 64.3915 88.0108 64.2863 88.1159L63.7958 88.6064C63.7257 88.7115 63.6206 88.7115 63.5155 88.6064C62.99 88.1509 62.2542 87.8706 61.5885 87.8706C59.9767 87.8706 58.7854 89.2021 58.7854 90.7787C58.7854 92.3554 60.0118 93.6869 61.6235 93.6869C62.4294 93.6869 63.025 93.3715 63.5506 92.9511C63.6557 92.881 63.7608 92.881 63.8309 92.9511L64.3564 93.4416C64.4615 93.5117 64.4265 93.6518 64.3564 93.7569C63.5856 94.4927 62.6396 94.8431 61.6235 94.8431C59.3811 94.8431 57.5942 93.0562 57.5942 90.8138C57.5942 88.5714 59.3461 86.7494 61.5885 86.7494Z" fill="black"/>
<path d="M75.0078 86.7494C77.2502 86.7494 79.0371 88.5363 79.0371 90.7787C79.0371 93.0211 77.2502 94.8081 75.0078 94.8081C72.7654 94.8081 70.9785 93.0211 70.9785 90.7787C70.9785 88.5363 72.7654 86.7494 75.0078 86.7494ZM75.0078 93.6869C76.6196 93.6869 77.9159 92.3905 77.9159 90.7787C77.9159 89.2021 76.6196 87.8706 75.0078 87.8706C73.4311 87.8706 72.0997 89.2021 72.0997 90.7787C72.0997 92.3905 73.3961 93.6869 75.0078 93.6869Z" fill="black"/>
<path d="M86.2548 87.0648C86.2548 86.9596 86.3599 86.8545 86.465 86.8545H89.0228C90.3892 86.8545 91.5455 87.9757 91.5455 89.3422C91.5455 90.7437 90.4243 91.8649 89.0578 91.8649H87.4461V94.4927C87.4461 94.5978 87.341 94.7029 87.2359 94.7029H86.5001C86.3599 94.7029 86.2898 94.5978 86.2898 94.4927V87.0648H86.2548ZM88.9527 90.7437C89.7235 90.7437 90.3892 90.113 90.3892 89.3072C90.3892 88.5363 89.7235 87.9757 88.9527 87.9757H87.4111V90.7437H88.9527Z" fill="black"/>
<path d="M98.6581 87.0648C98.6581 86.9596 98.7633 86.8545 98.8684 86.8545H101.461C103.633 86.8545 105.385 88.6064 105.385 90.7787C105.385 92.9511 103.598 94.7029 101.461 94.7029H98.8684C98.7633 94.7029 98.6581 94.5978 98.6581 94.4927V87.0648ZM101.286 93.6518C102.933 93.6518 104.124 92.4255 104.124 90.7787C104.124 89.132 102.933 87.9407 101.286 87.9407H99.8144V93.6518H101.286Z" fill="black"/>
<path d="M7.66571 59.2099C7.66571 58.9647 7.8409 58.7545 8.1212 58.7545H13.6221C16.4952 58.7545 18.8427 61.102 18.8427 63.905C18.8427 66.8131 16.4952 69.1606 13.6221 69.1606H10.714V74.6615C10.714 74.9067 10.5038 75.117 10.2585 75.117H8.1212C7.87594 75.117 7.66571 74.9067 7.66571 74.6615V59.2099ZM13.4119 66.3226C14.7083 66.3226 15.8295 65.2714 15.8295 63.905C15.8295 62.6086 14.7433 61.6275 13.4119 61.6275H10.714V66.3226H13.4119Z" fill="black"/>
<path d="M21.926 59.2099C21.926 58.9647 22.1012 58.7545 22.3815 58.7545H31.8767C32.1219 58.7545 32.3322 58.9647 32.3322 59.2099V61.137C32.3322 61.3823 32.157 61.5925 31.8767 61.5925H24.9743V65.4116H30.7555C31.0007 65.4116 31.211 65.6218 31.211 65.8671V67.7941C31.211 68.0394 31.0007 68.2496 30.7555 68.2496H24.9743V72.349H31.8767C32.1219 72.349 32.3322 72.5592 32.3322 72.8045V74.7316C32.3322 74.9768 32.157 75.187 31.8767 75.187H22.3815C22.1362 75.187 21.926 74.9768 21.926 74.7316V59.2099Z" fill="black"/>
<path d="M36.0811 58.9647C36.0811 58.7194 36.2913 58.5442 36.5366 58.5442H37.1322L46.8376 68.8453H46.8727V59.2099C46.8727 58.9647 47.0479 58.7545 47.3282 58.7545H49.4654C49.7107 58.7545 49.9209 58.9647 49.9209 59.2099V74.9067C49.9209 75.152 49.7107 75.3272 49.4654 75.3272H48.9048L39.1644 64.6057H39.1294V74.6264C39.1294 74.8717 38.9542 75.0819 38.6739 75.0819H36.5366C36.2913 75.0819 36.0811 74.8717 36.0811 74.6264V58.9647Z" fill="black"/>
<path d="M54.5809 58.9647C54.5809 58.7194 54.7912 58.5442 55.0364 58.5442H55.6321L65.3374 68.8453H65.3725V59.2099C65.3725 58.9647 65.5477 58.7545 65.828 58.7545H67.9653C68.2105 58.7545 68.4207 58.9647 68.4207 59.2099V74.9067C68.4207 75.152 68.2105 75.3272 67.9653 75.3272H67.4047L57.6642 64.6057H57.6292V74.6264C57.6292 74.8717 57.454 75.0819 57.1737 75.0819H55.0014C54.7561 75.0819 54.5459 74.8717 54.5459 74.6264V58.9647H54.5809Z" fill="black"/>
<path d="M73.0457 59.2099C73.0457 58.9647 73.2559 58.7545 73.5012 58.7545H75.6735C75.9188 58.7545 76.129 58.9647 76.129 59.2099V74.6615C76.129 74.9067 75.9188 75.117 75.6735 75.117H73.5012C73.2559 75.117 73.0457 74.9067 73.0457 74.6615V59.2099Z" fill="black"/>
<path d="M80.789 59.2099C80.789 58.9647 80.9642 58.7545 81.2445 58.7545H90.7397C90.9849 58.7545 91.1951 58.9647 91.1951 59.2099V61.137C91.1951 61.3823 91.02 61.5925 90.7397 61.5925H83.8373V65.4116H89.6184C89.8637 65.4116 90.0739 65.6218 90.0739 65.8671V67.7941C90.0739 68.0394 89.8637 68.2496 89.6184 68.2496H83.8373V72.349H90.7397C90.9849 72.349 91.1951 72.5592 91.1951 72.8045V74.7316C91.1951 74.9768 91.02 75.187 90.7397 75.187H81.2445C80.9992 75.187 80.789 74.9768 80.789 74.7316V59.2099Z" fill="black"/>
<path d="M93.9982 72.8045L94.8391 71.368C95.0143 71.0526 95.4347 71.0526 95.6449 71.1928C95.75 71.2628 97.6421 72.6293 99.1837 72.6293C100.41 72.6293 101.321 71.8234 101.321 70.8424C101.321 69.6511 100.305 68.8453 98.3428 68.0394C96.1354 67.1635 93.9631 65.762 93.9631 62.994C93.9631 60.9268 95.5048 58.5092 99.2188 58.5092C101.601 58.5092 103.423 59.7355 103.879 60.0859C104.124 60.226 104.194 60.6114 104.019 60.8567L103.143 62.1881C102.968 62.4684 102.617 62.6436 102.337 62.4684C102.162 62.3633 100.375 61.172 99.0786 61.172C97.7472 61.172 97.0114 62.048 97.0114 62.8188C97.0114 63.905 97.8873 64.6758 99.7793 65.4466C102.057 66.3576 104.65 67.7241 104.65 70.7373C104.65 73.1549 102.582 75.3622 99.2888 75.3622C96.3457 75.3622 94.6288 73.9958 94.1383 73.5403C93.9281 73.295 93.7879 73.1899 93.9982 72.8045Z" fill="black"/>
<path d="M7.63068 78.9361H105.876C106.226 78.9361 106.507 79.2164 106.507 79.5667V81.9493C106.507 82.2997 106.226 82.58 105.876 82.58H7.63068C7.2803 82.58 7 82.2997 7 81.9493V79.5667C7 79.2164 7.2803 78.9361 7.63068 78.9361Z" fill="url(#paint0_linear)"/>
<path d="M7.91095 40.0444H106.156C106.506 40.0444 106.787 40.3247 106.787 40.6751V43.0577C106.787 43.408 106.506 43.6883 106.156 43.6883H7.91095C7.56057 43.6883 7.28027 43.408 7.28027 43.0577V40.6751C7.31531 40.2897 7.56057 40.0444 7.91095 40.0444Z" fill="url(#paint1_linear)"/>
<path d="M7.91095 32.4763H106.156C106.506 32.4763 106.787 32.7566 106.787 33.107V35.4895C106.787 35.8399 106.506 36.1202 106.156 36.1202H7.91095C7.56057 36.1202 7.28027 35.8399 7.28027 35.4895V33.107C7.31531 32.7566 7.56057 32.4763 7.91095 32.4763Z" fill="url(#paint2_linear)"/>
<path d="M8.08615 25.1184L106.226 20.003C106.577 19.9679 106.857 20.2482 106.857 20.5986L106.997 22.9812C107.032 23.3315 106.752 23.6118 106.401 23.6118L8.26134 28.7273C7.91097 28.7623 7.63067 28.482 7.63067 28.1317L7.49051 25.7491C7.45547 25.4338 7.73578 25.1535 8.08615 25.1184Z" fill="url(#paint3_linear)"/>
<defs>
<linearGradient id="paint0_linear" x1="7.01051" y1="80.7545" x2="106.5" y2="80.7545" gradientUnits="userSpaceOnUse">
<stop offset="0.04" stop-color="#F2733E"/>
<stop offset="0.44" stop-color="#9E421D"/>
<stop offset="0.87" stop-color="#722807"/>
</linearGradient>
<linearGradient id="paint1_linear" x1="7.29779" y1="41.8419" x2="106.787" y2="41.8419" gradientUnits="userSpaceOnUse">
<stop offset="0.04" stop-color="#F2733E"/>
<stop offset="0.44" stop-color="#9E421D"/>
<stop offset="0.87" stop-color="#722807"/>
</linearGradient>
<linearGradient id="paint2_linear" x1="7.29779" y1="34.3018" x2="106.787" y2="34.3018" gradientUnits="userSpaceOnUse">
<stop offset="0.04" stop-color="#F2733E"/>
<stop offset="0.44" stop-color="#9E421D"/>
<stop offset="0.87" stop-color="#722807"/>
</linearGradient>
<linearGradient id="paint3_linear" x1="7.54697" y1="26.9867" x2="106.897" y2="21.8145" gradientUnits="userSpaceOnUse">
<stop offset="0.04" stop-color="#F2733E"/>
<stop offset="0.44" stop-color="#9E421D"/>
<stop offset="0.87" stop-color="#722807"/>
</linearGradient>
</defs>
</svg>
